HIERARCHY
ROOT Hips
{
 OFFSET 0.000000 0.000000 0.000000
 CHANNELS 6 Xposition Yposition Zposition Yrotation Xrotation Zrotation
 JOINT Chest
 {
  OFFSET 0.000000 9.585900 0.002600
  CHANNELS 3 Yrotation Xrotation Zrotation
  JOINT Chest2
  {
   OFFSET 0.000000 9.601200 -0.005300
   CHANNELS 3 Yrotation Xrotation Zrotation
   JOINT Chest3
   {
    OFFSET 0.000000 9.561800 0.000000
    CHANNELS 3 Yrotation Xrotation Zrotation
    JOINT Chest4
    {
     OFFSET 0.000000 9.552100 0.000000
     CHANNELS 3 Yrotation Xrotation Zrotation
     JOINT Neck
     {
      OFFSET 0.000000 14.453000 0.000000
      CHANNELS 3 Yrotation Xrotation Zrotation
      JOINT Head
      {
       OFFSET 0.000000 8.936500 -0.011300
       CHANNELS 3 Yrotation Xrotation Zrotation
       End Site
       {
        OFFSET 0.000000 17.073600 -0.006000
       }
      }
     }
     JOINT RightCollar
     {
      OFFSET -2.921100 9.558500 0.000000
      CHANNELS 3 Yrotation Xrotation Zrotation
      JOINT RightShoulder
      {
       OFFSET -13.519700 0.000000 0.000000
       CHANNELS 3 Yrotation Xrotation Zrotation
       JOINT RightElbow
       {
        OFFSET 0.000000 -29.696600 0.000000
        CHANNELS 3 Yrotation Xrotation Zrotation
        JOINT RightWrist
        {
         OFFSET 0.000000 -24.004700 0.000000
         CHANNELS 3 Yrotation Xrotation Zrotation
         End Site
         {
          OFFSET 0.000000 -17.728500 0.000000
         }
        }
       }
      }
     }
     JOINT LeftCollar
     {
      OFFSET 2.921100 9.558500 0.000000
      CHANNELS 3 Yrotation Xrotation Zrotation
      JOINT LeftShoulder
      {
       OFFSET 13.519700 0.000000 0.000000
       CHANNELS 3 Yrotation Xrotation Zrotation
       JOINT LeftElbow
       {
        OFFSET 0.000000 -29.696600 0.000000
        CHANNELS 3 Yrotation Xrotation Zrotation
        JOINT LeftWrist
        {
         OFFSET 0.000000 -24.004700 0.000000
         CHANNELS 3 Yrotation Xrotation Zrotation
         End Site
         {
          OFFSET 0.000000 -17.728500 0.000000
         }
        }
       }
      }
     }
    }
   }
  }
 }
 JOINT RightHip
 {
  OFFSET -7.771700 -0.012900 -0.001300
  CHANNELS 3 Yrotation Xrotation Zrotation
  JOINT RightKnee
  {
   OFFSET 0.000000 -40.869800 0.001200
   CHANNELS 3 Yrotation Xrotation Zrotation
   JOINT RightAnkle
   {
    OFFSET 0.000000 -39.717900 0.002100
    CHANNELS 3 Yrotation Xrotation Zrotation
    JOINT RightToe
    {
     OFFSET 0.000000 -4.965400 11.033500
     CHANNELS 3 Yrotation Xrotation Zrotation
     End Site
     {
      OFFSET 0.000000 -1.423100 5.872300
     }
    }
   }
  }
 }
 JOINT LeftHip
 {
  OFFSET 7.771700 -0.012900 -0.001300
  CHANNELS 3 Yrotation Xrotation Zrotation
  JOINT LeftKnee
  {
   OFFSET 0.000000 -40.869800 0.001200
   CHANNELS 3 Yrotation Xrotation Zrotation
   JOINT LeftAnkle
   {
    OFFSET 0.000000 -39.717900 0.002100
    CHANNELS 3 Yrotation Xrotation Zrotation
    JOINT LeftToe
    {
     OFFSET 0.000000 -4.965400 11.033500
     CHANNELS 3 Yrotation Xrotation Zrotation
     End Site
     {
      OFFSET 0.000000 -1.423100 5.872300
     }
    }
   }
  }
 }
}
MOTION
Frames: 8
Frame Time: 0.008333
-41.092962 46.856733 14.155138 178.685803 -30.607134 -3.291283 -0.395159 17.304420 1.178746 0.004215 1.813331 0.118120 -0.137272 3.064751 0.222593 -0.304837 15.162044 1.028307 -0.791142 19.318093 -1.271276 -1.004393 0.103834 -2.101714 -0.190596 1.877588 -2.047594 5.477034 -6.484731 -16.223842 -50.330695 -59.624069 101.854644 -1.385979 4.590914 -20.811397 0.406909 0.470056 1.728401 -4.039715 -2.650475 14.113714 70.578098 -69.062641 -110.365884 -0.604290 10.891336 10.941991 -5.299323 -56.600564 -7.350170 -145.013822 77.911439 -136.365605 -7.639385 -16.318689 -6.067725 -0.025826 -0.915283 0.044423 0.356900 -58.179306 9.585620 -107.696618 81.790468 -112.598889 4.434155 -5.984669 6.993788 0.044731 0.012851 -0.066068
-41.036906 46.874112 14.137476 178.592312 -30.580085 -3.254053 -0.405432 17.302272 1.177641 0.018292 1.808925 0.115460 -0.156720 3.068731 0.226232 -0.322059 15.161359 1.027890 -0.761576 19.292587 -1.296534 -0.965053 0.064464 -2.156533 -0.157361 1.898812 -2.069306 5.459446 -6.509918 -16.247260 -50.316421 -59.635495 101.866326 -1.407241 4.584334 -20.852290 0.464550 0.458829 1.693598 -4.165387 -2.660758 14.127580 70.542641 -69.057336 -110.288158 -0.589072 10.921447 10.989676 -5.180233 -56.659164 -7.357997 -145.180768 77.972108 -136.525475 -7.679040 -16.013899 -6.154901 -0.015894 -0.923074 0.108980 0.305317 -58.191965 9.678063 -107.882261 81.749555 -112.743542 4.513362 -6.033959 6.910613 0.016920 0.007553 -0.064773
-40.989372 46.891731 14.121217 178.532592 -30.553176 -3.227746 -0.422799 17.291808 1.174193 0.011258 1.813766 0.115199 -0.154527 3.063049 0.226211 -0.298156 15.153463 1.018292 -0.784131 19.282019 -1.283905 -0.971000 -0.000515 -2.148624 -0.188187 1.931765 -2.058872 5.447450 -6.529464 -16.260508 -50.302059 -59.626696 101.830938 -1.405604 4.595694 -20.848858 0.366184 0.498269 1.738321 -4.181581 -2.710250 14.104723 70.503654 -69.043005 -110.218744 -0.570278 10.955564 11.035030 -5.100297 -56.702685 -7.356781 -145.389773 78.039610 -136.727326 -7.698523 -15.765612 -6.259447 -0.010119 -0.895120 0.165595 0.234350 -58.201036 9.757620 -107.903184 81.730864 -112.763417 4.564277 -6.058388 6.881353 0.009233 0.004655 -0.081799
-40.949410 46.909607 14.106196 178.473878 -30.529856 -3.203491 -0.433187 17.280186 1.173825 -0.042132 1.826695 0.124264 -0.107739 3.049318 0.214901 -0.337268 15.156030 1.018543 -0.761613 19.264792 -1.292816 -0.958842 -0.025444 -2.148860 -0.168700 1.954534 -2.072658 5.482691 -6.553896 -16.281807 -50.294757 -59.604261 101.782065 -1.415643 4.603300 -20.867190 0.357626 0.519816 1.741985 -4.134386 -2.746465 14.077315 70.405250 -69.052054 -110.186702 -0.550963 10.991935 11.074847 -5.019668 -56.744872 -7.348773 -145.642301 78.108624 -136.979571 -7.716650 -15.534316 -6.341539 -0.003485 -0.858576 0.198451 0.165237 -58.206068 9.823025 -107.925904 81.719091 -112.783335 4.651286 -6.089985 6.878838 -0.027005 0.006670 -0.141571
-40.917980 46.927562 14.092313 178.450620 -30.508547 -3.192208 -0.442913 17.264067 1.171513 -0.084308 1.834216 0.132063 -0.097651 3.045758 0.210523 -0.381669 15.157239 1.015459 -0.723913 19.251829 -1.304319 -0.967123 -0.045682 -2.121978 -0.147319 1.976920 -2.082469 5.454016 -6.557276 -16.269283 -50.240715 -59.653693 101.805187 -1.463824 4.595829 -20.948852 0.367134 0.535870 1.742126 -4.181843 -2.775653 14.086040 70.336966 -69.030057 -110.104307 -0.535665 11.027108 11.106120 -4.948287 -56.787928 -7.358838 -145.880976 78.165998 -137.230505 -7.734578 -15.324446 -6.379525 0.012441 -0.807509 0.206750 0.131166 -58.215661 9.851568 -107.934929 81.709827 -112.784673 4.716916 -6.095489 6.865364 -0.039909 -0.009202 -0.142080
-40.893248 46.945758 14.079004 178.401779 -30.496144 -3.170772 -0.427690 17.255154 1.171642 -0.107178 1.838635 0.138452 -0.103507 3.045645 0.209458 -0.411802 15.156857 1.007143 -0.720959 19.242075 -1.293230 -0.965023 -0.063840 -2.102612 -0.139059 1.999421 -2.082904 5.422515 -6.558880 -16.250716 -50.225348 -59.630948 101.733982 -1.433172 4.626280 -20.904541 0.356000 0.552706 1.751296 -4.224559 -2.802162 14.092603 70.264697 -69.010376 -110.013490 -0.520937 11.035725 11.150041 -4.879774 -56.815725 -7.357112 -146.053077 78.216828 -137.438236 -7.705474 -15.088686 -6.376237 -0.003828 -0.789505 0.182640 0.116809 -58.219584 9.869814 -108.005139 81.681923 -112.808347 4.758933 -6.126960 6.795952 -0.010738 -0.004901 -0.119156
-40.877500 46.963352 14.066895 178.401694 -30.482977 -3.158889 -0.479546 17.251836 1.156553 -0.105093 1.840587 0.140100 -0.110385 3.046222 0.208657 -0.406990 15.150695 0.994059 -0.770673 19.239173 -1.253645 -0.953610 -0.080828 -2.093578 -0.169081 2.024919 -2.070507 5.454083 -6.576977 -16.261333 -50.243012 -59.592738 101.683262 -1.430437 4.644468 -20.900675 0.306135 0.572007 1.775123 -4.241640 -2.822640 14.086530 70.195672 -69.003030 -109.945200 -0.499557 11.001736 11.230777 -4.820183 -56.844654 -7.400426 -146.142511 78.228423 -137.541743 -7.667571 -14.928613 -6.386786 0.014998 -0.724476 0.170284 -0.019501 -58.201888 9.878706 -108.108859 81.728464 -112.905789 4.842558 -6.152539 6.780031 -0.049869 -0.009638 -0.172214
-40.867329 46.979755 14.056668 178.401468 -30.467003 -3.146998 -0.559431 17.260930 1.150078 -0.072198 1.830427 0.125892 -0.117962 3.047441 0.208384 -0.465162 15.155975 0.990617 -0.756945 19.228122 -1.246226 -0.963288 -0.096151 -2.064575 -0.144594 2.035687 -2.084873 5.490060 -6.592986 -16.271384 -50.262681 -59.560920 101.653239 -1.437822 4.653680 -20.911779 0.314335 0.574886 1.775728 -4.263544 -2.837612 14.074565 70.147699 -68.999766 -109.890376 -0.501896 11.069439 11.176677 -4.697841 -56.878124 -7.492438 -146.243518 78.226175 -137.625026 -7.643728 -14.765458 -6.386293 0.027479 -0.678384 0.158554 -0.091979 -58.199117 9.855815 -108.234369 81.768513 -113.008657 4.899251 -6.176148 6.743104 -0.067865 -0.009398 -0.182717
